<svg xmlns="http://www.w3.org/2000/svg" width="512" height="512" viewBox="0 0 512 512"><rect width="512" height="512" fill="hsl(65, 30%, 8%)"/><circle cx="256.0" cy="256.0" r="194.6" fill="none" stroke="hsl(65, 70%, 60%)" stroke-width="1.5" opacity="0.4"/><path d="M 128.6 403.0 L 69.3 201.2 L 69.3 310.8 L 336.8 79.0 L 228.3 448.6 L 450.6 256.0 L 128.6 109.0 L 419.7 361.2 L 419.7 150.8 L 69.3 310.8 L 336.8 79.0 L 450.6 256.0 Z" fill="none" stroke="hsl(65, 70%, 60%)" stroke-width="2.5" stroke-linejoin="round"/><circle cx="450.6" cy="256.0" r="4.0" fill="hsl(205, 80%, 70%)"/><line x1="427.2" y1="256.0" x2="473.9" y2="256.0" stroke="hsl(205, 80%, 70%)" stroke-width="1.5"/><circle cx="419.7" cy="361.2" r="4.1" fill="hsl(205, 80%, 70%)"/><line x1="400.0" y1="348.6" x2="439.3" y2="373.8" stroke="hsl(205, 80%, 70%)" stroke-width="1.5"/><circle cx="336.8" cy="433.0" r="4.8" fill="hsl(205, 80%, 70%)"/><line x1="327.1" y1="411.7" x2="346.5" y2="454.2" stroke="hsl(205, 80%, 70%)" stroke-width="1.5"/><circle cx="228.3" cy="448.6" r="5.3" fill="hsl(205, 80%, 70%)"/><line x1="231.6" y1="425.5" x2="225.0" y2="471.7" stroke="hsl(205, 80%, 70%)" stroke-width="1.5"/><circle cx="128.6" cy="403.0" r="5.1" fill="hsl(205, 80%, 70%)"/><circle cx="69.3" cy="310.8" r="6.5" fill="hsl(205, 80%, 70%)"/><circle cx="69.3" cy="201.2" r="3.4" fill="hsl(205, 80%, 70%)"/><circle cx="128.6" cy="109.0" r="6.5" fill="hsl(205, 80%, 70%)"/><line x1="143.9" y1="126.6" x2="113.3" y2="91.3" stroke="hsl(205, 80%, 70%)" stroke-width="1.5"/><circle cx="228.3" cy="63.4" r="6.6" fill="hsl(205, 80%, 70%)"/><line x1="231.6" y1="86.5" x2="225.0" y2="40.3" stroke="hsl(205, 80%, 70%)" stroke-width="1.5"/><circle cx="336.8" cy="79.0" r="4.7" fill="hsl(205, 80%, 70%)"/><line x1="327.1" y1="100.3" x2="346.5" y2="57.8" stroke="hsl(205, 80%, 70%)" stroke-width="1.5"/><circle cx="419.7" cy="150.8" r="3.6" fill="hsl(205, 80%, 70%)"/><circle cx="256.0" cy="256.0" r="23.3" fill="none" stroke="hsl(205, 80%, 70%)" stroke-width="1.5"/></svg>