<svg xmlns="http://www.w3.org/2000/svg" width="512" height="512" viewBox="0 0 512 512"><rect width="512" height="512" fill="hsl(81, 30%, 8%)"/><circle cx="256.0" cy="256.0" r="194.6" fill="none" stroke="hsl(81, 70%, 60%)" stroke-width="1.5" opacity="0.4"/><path d="M 450.6 256.0 L 289.8 447.6 L 289.8 64.4 L 73.2 322.5 L 405.0 381.1 L 73.2 322.5 L 450.6 256.0 L 73.2 322.5 L 450.6 256.0 L 73.2 189.5 Z" fill="none" stroke="hsl(81, 70%, 60%)" stroke-width="2.5" stroke-linejoin="round"/><circle cx="450.6" cy="256.0" r="4.6" fill="hsl(221, 80%, 70%)"/><circle cx="405.0" cy="381.1" r="4.4" fill="hsl(221, 80%, 70%)"/><circle cx="289.8" cy="447.6" r="6.7" fill="hsl(221, 80%, 70%)"/><line x1="285.7" y1="424.6" x2="293.8" y2="470.6" stroke="hsl(221, 80%, 70%)" stroke-width="1.5"/><circle cx="158.7" cy="424.5" r="4.8" fill="hsl(221, 80%, 70%)"/><line x1="170.4" y1="404.3" x2="147.0" y2="444.7" stroke="hsl(221, 80%, 70%)" stroke-width="1.5"/><circle cx="73.2" cy="322.5" r="4.9" fill="hsl(221, 80%, 70%)"/><circle cx="73.2" cy="189.5" r="6.7" fill="hsl(221, 80%, 70%)"/><circle cx="158.7" cy="87.5" r="4.1" fill="hsl(221, 80%, 70%)"/><line x1="170.4" y1="107.7" x2="147.0" y2="67.3" stroke="hsl(221, 80%, 70%)" stroke-width="1.5"/><circle cx="289.8" cy="64.4" r="4.0" fill="hsl(221, 80%, 70%)"/><line x1="285.7" y1="87.4" x2="293.8" y2="41.4" stroke="hsl(221, 80%, 70%)" stroke-width="1.5"/><circle cx="405.0" cy="130.9" r="4.8" fill="hsl(221, 80%, 70%)"/><line x1="387.2" y1="145.9" x2="422.9" y2="115.9" stroke="hsl(221, 80%, 70%)" stroke-width="1.5"/><circle cx="256.0" cy="256.0" r="23.3" fill="none" stroke="hsl(221, 80%, 70%)" stroke-width="1.5"/></svg>