<svg xmlns="http://www.w3.org/2000/svg" width="400" height="400" viewBox="0 0 400 400">
  <rect width="400" height="400" fill="#0d1418"/>
  <!-- fissure glow at base -->
  <ellipse cx="200" cy="372" rx="120" ry="10" fill="#c8501c" opacity="0.55"/>
  <ellipse cx="200" cy="372" rx="70" ry="5" fill="#f2a93b" opacity="0.8"/>
  <!-- rising brine haze -->
  <path d="M 188 372 Q 184 300 196 230 Q 200 180 200 130" stroke="#f2a93b" stroke-width="2" fill="none" opacity="0.35"/>
  <path d="M 212 372 Q 216 300 204 230 Q 200 180 200 130" stroke="#f2a93b" stroke-width="2" fill="none" opacity="0.35"/>
  <!-- galvanth column: stacked bimetallic rings -->
  <g>
    <rect x="178" y="340" width="44" height="14" fill="#b87333"/>
    <rect x="178" y="326" width="44" height="14" fill="#6b7280"/>
    <rect x="178" y="312" width="44" height="14" fill="#b87333"/>
    <rect x="178" y="298" width="44" height="14" fill="#6b7280"/>
    <rect x="180" y="284" width="40" height="14" fill="#b87333"/>
    <rect x="180" y="270" width="40" height="14" fill="#6b7280"/>
    <rect x="182" y="256" width="36" height="14" fill="#b87333"/>
    <rect x="182" y="242" width="36" height="14" fill="#6b7280"/>
    <rect x="184" y="228" width="32" height="13" fill="#b87333"/>
    <rect x="184" y="215" width="32" height="13" fill="#6b7280"/>
    <rect x="186" y="202" width="28" height="13" fill="#b87333"/>
    <rect x="186" y="189" width="28" height="13" fill="#6b7280"/>
    <rect x="188" y="176" width="24" height="13" fill="#b87333"/>
    <rect x="188" y="163" width="24" height="13" fill="#6b7280"/>
    <rect x="190" y="150" width="20" height="13" fill="#b87333"/>
    <rect x="190" y="137" width="20" height="13" fill="#6b7280"/>
  </g>
  <!-- crown: electroreceptive cilia -->
  <g stroke="#f2a93b" stroke-width="1.2" fill="none" opacity="0.9">
    <path d="M 192 137 Q 188 110 178 88"/>
    <path d="M 196 137 Q 194 108 190 82"/>
    <path d="M 200 137 L 200 78"/>
    <path d="M 204 137 Q 206 108 210 82"/>
    <path d="M 208 137 Q 212 110 222 88"/>
  </g>
  <circle cx="200" cy="78" r="3" fill="#f2a93b"/>
  <!-- root filaments into fissure -->
  <g stroke="#6b7280" stroke-width="1" fill="none" opacity="0.7">
    <path d="M 178 354 Q 168 362 158 370"/>
    <path d="M 184 354 Q 178 364 172 372"/>
    <path d="M 216 354 Q 222 364 228 372"/>
    <path d="M 222 354 Q 232 362 242 370"/>
  </g>
  <!-- field-guide label -->
  <text x="200" y="395" text-anchor="middle" font-family="serif" font-size="11" fill="#9aa3a8" font-style="italic">Galvanth — the Vent</text>
</svg>
