<svg xmlns="http://www.w3.org/2000/svg" width="900" height="900" viewBox="0 0 900 900">
<defs>
<radialGradient id="canyonGlow"><stop offset="0%" stop-color="#a78bfa" stop-opacity="0.22"/><stop offset="100%" stop-color="#a78bfa" stop-opacity="0"/></radialGradient>
<filter id="soft"><feGaussianBlur stdDeviation="4"/></filter>
</defs>
<rect width="100%" height="100%" fill="#071018"/>
<text x="72.0" y="38" fill="#e5f0ff" font-family="monospace" font-size="23" font-weight="700">kalmanville</text>
<text x="72.0" y="62" fill="#8aa4c2" font-family="monospace" font-size="12">seed=festival  steps=120  base_noise=26.0px  pings=454/480</text>
<text x="72.0" y="84" fill="#9fb9d8" font-family="monospace" font-size="12">noisy rmse 60.3px -> filter rmse 30.0px  (2.0x cleaner)</text>
<ellipse cx="450.0" cy="495.0" rx="207.0" ry="162.0" fill="url(#canyonGlow)"/>
<rect x="77.0" y="185.0" width="84.5" height="95.0" rx="8" fill="#20283a" opacity="0.92"/>
<rect x="171.5" y="185.0" width="84.5" height="95.0" rx="8" fill="#20283a" opacity="0.92"/>
<rect x="266.0" y="185.0" width="84.5" height="95.0" rx="8" fill="#20283a" opacity="0.92"/>
<rect x="360.5" y="185.0" width="84.5" height="95.0" rx="8" fill="#20283a" opacity="0.92"/>
<rect x="455.0" y="185.0" width="84.5" height="95.0" rx="8" fill="#20283a" opacity="0.92"/>
<rect x="549.5" y="185.0" width="84.5" height="95.0" rx="8" fill="#173d31" opacity="0.92"/>
<circle cx="564.7" cy="215.4" r="5" fill="#44d07b" opacity="0.35"/>
<circle cx="579.9" cy="226.8" r="5" fill="#44d07b" opacity="0.35"/>
<circle cx="595.1" cy="238.2" r="5" fill="#44d07b" opacity="0.35"/>
<circle cx="610.3" cy="215.4" r="5" fill="#44d07b" opacity="0.35"/>
<rect x="644.0" y="185.0" width="84.5" height="95.0" rx="8" fill="#283044" opacity="0.92"/>
<rect x="738.5" y="185.0" width="84.5" height="95.0" rx="8" fill="#20283a" opacity="0.92"/>
<rect x="77.0" y="290.0" width="84.5" height="95.0" rx="8" fill="#20283a" opacity="0.92"/>
<rect x="171.5" y="290.0" width="84.5" height="95.0" rx="8" fill="#283044" opacity="0.92"/>
<rect x="266.0" y="290.0" width="84.5" height="95.0" rx="8" fill="#20283a" opacity="0.92"/>
<rect x="360.5" y="290.0" width="84.5" height="95.0" rx="8" fill="#173d31" opacity="0.92"/>
<circle cx="375.7" cy="320.4" r="5" fill="#44d07b" opacity="0.35"/>
<circle cx="390.9" cy="331.8" r="5" fill="#44d07b" opacity="0.35"/>
<circle cx="406.1" cy="343.2" r="5" fill="#44d07b" opacity="0.35"/>
<circle cx="421.3" cy="320.4" r="5" fill="#44d07b" opacity="0.35"/>
<rect x="455.0" y="290.0" width="84.5" height="95.0" rx="8" fill="#20283a" opacity="0.92"/>
<rect x="549.5" y="290.0" width="84.5" height="95.0" rx="8" fill="#20283a" opacity="0.92"/>
<rect x="644.0" y="290.0" width="84.5" height="95.0" rx="8" fill="#20283a" opacity="0.92"/>
<rect x="738.5" y="290.0" width="84.5" height="95.0" rx="8" fill="#20283a" opacity="0.92"/>
<rect x="77.0" y="395.0" width="84.5" height="95.0" rx="8" fill="#173d31" opacity="0.92"/>
<circle cx="92.2" cy="425.4" r="5" fill="#44d07b" opacity="0.35"/>
<circle cx="107.4" cy="436.8" r="5" fill="#44d07b" opacity="0.35"/>
<circle cx="122.6" cy="448.2" r="5" fill="#44d07b" opacity="0.35"/>
<circle cx="137.8" cy="425.4" r="5" fill="#44d07b" opacity="0.35"/>
<rect x="171.5" y="395.0" width="84.5" height="95.0" rx="8" fill="#20283a" opacity="0.92"/>
<rect x="266.0" y="395.0" width="84.5" height="95.0" rx="8" fill="#1f2945" opacity="0.92"/>
<rect x="274.0" y="463.1" width="4" height="20.9" fill="#9ca3af" opacity="0.18"/>
<rect x="291.1" y="431.0" width="4" height="53.0" fill="#9ca3af" opacity="0.18"/>
<rect x="308.2" y="452.4" width="4" height="31.6" fill="#9ca3af" opacity="0.18"/>
<rect x="325.4" y="420.4" width="4" height="63.7" fill="#9ca3af" opacity="0.18"/>
<rect x="360.5" y="395.0" width="84.5" height="95.0" rx="8" fill="#1f2945" opacity="0.92"/>
<rect x="368.5" y="463.1" width="4" height="20.9" fill="#9ca3af" opacity="0.18"/>
<rect x="379.9" y="431.0" width="4" height="53.0" fill="#9ca3af" opacity="0.18"/>
<rect x="391.3" y="452.4" width="4" height="31.6" fill="#9ca3af" opacity="0.18"/>
<rect x="402.8" y="420.4" width="4" height="63.7" fill="#9ca3af" opacity="0.18"/>
<rect x="414.2" y="441.7" width="4" height="42.3" fill="#9ca3af" opacity="0.18"/>
<rect x="425.6" y="463.1" width="4" height="20.9" fill="#9ca3af" opacity="0.18"/>
<rect x="455.0" y="395.0" width="84.5" height="95.0" rx="8" fill="#1f2945" opacity="0.92"/>
<rect x="463.0" y="463.1" width="4" height="20.9" fill="#9ca3af" opacity="0.18"/>
<rect x="474.4" y="431.0" width="4" height="53.0" fill="#9ca3af" opacity="0.18"/>
<rect x="485.8" y="452.4" width="4" height="31.6" fill="#9ca3af" opacity="0.18"/>
<rect x="497.2" y="420.4" width="4" height="63.7" fill="#9ca3af" opacity="0.18"/>
<rect x="508.7" y="441.7" width="4" height="42.3" fill="#9ca3af" opacity="0.18"/>
<rect x="520.1" y="463.1" width="4" height="20.9" fill="#9ca3af" opacity="0.18"/>
<rect x="549.5" y="395.0" width="84.5" height="95.0" rx="8" fill="#1f2945" opacity="0.92"/>
<rect x="557.5" y="463.1" width="4" height="20.9" fill="#9ca3af" opacity="0.18"/>
<rect x="574.6" y="431.0" width="4" height="53.0" fill="#9ca3af" opacity="0.18"/>
<rect x="591.8" y="452.4" width="4" height="31.6" fill="#9ca3af" opacity="0.18"/>
<rect x="608.9" y="420.4" width="4" height="63.7" fill="#9ca3af" opacity="0.18"/>
<rect x="644.0" y="395.0" width="84.5" height="95.0" rx="8" fill="#20283a" opacity="0.92"/>
<rect x="738.5" y="395.0" width="84.5" height="95.0" rx="8" fill="#20283a" opacity="0.92"/>
<rect x="77.0" y="500.0" width="84.5" height="95.0" rx="8" fill="#14314b" opacity="0.92"/>
<path d="M 87.0 552.2 C 106.6 517.1, 134.5 581.7, 151.5 539.9" fill="none" stroke="#7dd3fc" stroke-width="3" opacity="0.35"/>
<rect x="171.5" y="500.0" width="84.5" height="95.0" rx="8" fill="#20283a" opacity="0.92"/>
<rect x="266.0" y="500.0" width="84.5" height="95.0" rx="8" fill="#1f2945" opacity="0.92"/>
<rect x="274.0" y="568.1" width="4" height="20.9" fill="#9ca3af" opacity="0.18"/>
<rect x="291.1" y="536.0" width="4" height="53.0" fill="#9ca3af" opacity="0.18"/>
<rect x="308.2" y="557.4" width="4" height="31.6" fill="#9ca3af" opacity="0.18"/>
<rect x="325.4" y="525.4" width="4" height="63.7" fill="#9ca3af" opacity="0.18"/>
<rect x="360.5" y="500.0" width="84.5" height="95.0" rx="8" fill="#1f2945" opacity="0.92"/>
<rect x="368.5" y="568.1" width="4" height="20.9" fill="#9ca3af" opacity="0.18"/>
<rect x="379.9" y="536.0" width="4" height="53.0" fill="#9ca3af" opacity="0.18"/>
<rect x="391.3" y="557.4" width="4" height="31.6" fill="#9ca3af" opacity="0.18"/>
<rect x="402.8" y="525.4" width="4" height="63.7" fill="#9ca3af" opacity="0.18"/>
<rect x="414.2" y="546.7" width="4" height="42.3" fill="#9ca3af" opacity="0.18"/>
<rect x="425.6" y="568.1" width="4" height="20.9" fill="#9ca3af" opacity="0.18"/>
<rect x="455.0" y="500.0" width="84.5" height="95.0" rx="8" fill="#1f2945" opacity="0.92"/>
<rect x="463.0" y="568.1" width="4" height="20.9" fill="#9ca3af" opacity="0.18"/>
<rect x="474.4" y="536.0" width="4" height="53.0" fill="#9ca3af" opacity="0.18"/>
<rect x="485.8" y="557.4" width="4" height="31.6" fill="#9ca3af" opacity="0.18"/>
<rect x="497.2" y="525.4" width="4" height="63.7" fill="#9ca3af" opacity="0.18"/>
<rect x="508.7" y="546.7" width="4" height="42.3" fill="#9ca3af" opacity="0.18"/>
<rect x="520.1" y="568.1" width="4" height="20.9" fill="#9ca3af" opacity="0.18"/>
<rect x="549.5" y="500.0" width="84.5" height="95.0" rx="8" fill="#1f2945" opacity="0.92"/>
<rect x="557.5" y="568.1" width="4" height="20.9" fill="#9ca3af" opacity="0.18"/>
<rect x="574.6" y="536.0" width="4" height="53.0" fill="#9ca3af" opacity="0.18"/>
<rect x="591.8" y="557.4" width="4" height="31.6" fill="#9ca3af" opacity="0.18"/>
<rect x="608.9" y="525.4" width="4" height="63.7" fill="#9ca3af" opacity="0.18"/>
<rect x="644.0" y="500.0" width="84.5" height="95.0" rx="8" fill="#20283a" opacity="0.92"/>
<rect x="738.5" y="500.0" width="84.5" height="95.0" rx="8" fill="#14314b" opacity="0.92"/>
<path d="M 748.5 552.2 C 768.1 517.1, 796.0 581.7, 813.0 539.9" fill="none" stroke="#7dd3fc" stroke-width="3" opacity="0.35"/>
<rect x="77.0" y="605.0" width="84.5" height="95.0" rx="8" fill="#20283a" opacity="0.92"/>
<rect x="171.5" y="605.0" width="84.5" height="95.0" rx="8" fill="#20283a" opacity="0.92"/>
<rect x="266.0" y="605.0" width="84.5" height="95.0" rx="8" fill="#20283a" opacity="0.92"/>
<rect x="360.5" y="605.0" width="84.5" height="95.0" rx="8" fill="#20283a" opacity="0.92"/>
<rect x="455.0" y="605.0" width="84.5" height="95.0" rx="8" fill="#283044" opacity="0.92"/>
<rect x="549.5" y="605.0" width="84.5" height="95.0" rx="8" fill="#283044" opacity="0.92"/>
<rect x="644.0" y="605.0" width="84.5" height="95.0" rx="8" fill="#20283a" opacity="0.92"/>
<rect x="738.5" y="605.0" width="84.5" height="95.0" rx="8" fill="#20283a" opacity="0.92"/>
<rect x="77.0" y="710.0" width="84.5" height="95.0" rx="8" fill="#283044" opacity="0.92"/>
<rect x="171.5" y="710.0" width="84.5" height="95.0" rx="8" fill="#20283a" opacity="0.92"/>
<rect x="266.0" y="710.0" width="84.5" height="95.0" rx="8" fill="#283044" opacity="0.92"/>
<rect x="360.5" y="710.0" width="84.5" height="95.0" rx="8" fill="#20283a" opacity="0.92"/>
<rect x="455.0" y="710.0" width="84.5" height="95.0" rx="8" fill="#20283a" opacity="0.92"/>
<rect x="549.5" y="710.0" width="84.5" height="95.0" rx="8" fill="#173d31" opacity="0.92"/>
<circle cx="564.7" cy="740.4" r="5" fill="#44d07b" opacity="0.35"/>
<circle cx="579.9" cy="751.8" r="5" fill="#44d07b" opacity="0.35"/>
<circle cx="595.1" cy="763.2" r="5" fill="#44d07b" opacity="0.35"/>
<circle cx="610.3" cy="740.4" r="5" fill="#44d07b" opacity="0.35"/>
<rect x="644.0" y="710.0" width="84.5" height="95.0" rx="8" fill="#20283a" opacity="0.92"/>
<rect x="738.5" y="710.0" width="84.5" height="95.0" rx="8" fill="#20283a" opacity="0.92"/>
<line x1="72.0" y1="180.0" x2="72.0" y2="810.0" stroke="#27364c" stroke-width="5" stroke-linecap="round"/>
<line x1="166.5" y1="180.0" x2="166.5" y2="810.0" stroke="#27364c" stroke-width="5" stroke-linecap="round"/>
<line x1="261.0" y1="180.0" x2="261.0" y2="810.0" stroke="#3b506c" stroke-width="8" stroke-linecap="round"/>
<line x1="355.5" y1="180.0" x2="355.5" y2="810.0" stroke="#27364c" stroke-width="5" stroke-linecap="round"/>
<line x1="450.0" y1="180.0" x2="450.0" y2="810.0" stroke="#27364c" stroke-width="5" stroke-linecap="round"/>
<line x1="544.5" y1="180.0" x2="544.5" y2="810.0" stroke="#3b506c" stroke-width="8" stroke-linecap="round"/>
<line x1="639.0" y1="180.0" x2="639.0" y2="810.0" stroke="#27364c" stroke-width="5" stroke-linecap="round"/>
<line x1="733.5" y1="180.0" x2="733.5" y2="810.0" stroke="#27364c" stroke-width="5" stroke-linecap="round"/>
<line x1="828.0" y1="180.0" x2="828.0" y2="810.0" stroke="#27364c" stroke-width="5" stroke-linecap="round"/>
<line x1="72.0" y1="180.0" x2="828.0" y2="180.0" stroke="#27364c" stroke-width="5" stroke-linecap="round"/>
<line x1="72.0" y1="285.0" x2="828.0" y2="285.0" stroke="#27364c" stroke-width="5" stroke-linecap="round"/>
<line x1="72.0" y1="390.0" x2="828.0" y2="390.0" stroke="#3b506c" stroke-width="8" stroke-linecap="round"/>
<line x1="72.0" y1="495.0" x2="828.0" y2="495.0" stroke="#27364c" stroke-width="5" stroke-linecap="round"/>
<line x1="72.0" y1="600.0" x2="828.0" y2="600.0" stroke="#3b506c" stroke-width="8" stroke-linecap="round"/>
<line x1="72.0" y1="705.0" x2="828.0" y2="705.0" stroke="#27364c" stroke-width="5" stroke-linecap="round"/>
<line x1="72.0" y1="810.0" x2="828.0" y2="810.0" stroke="#27364c" stroke-width="5" stroke-linecap="round"/>
<circle cx="72.0" cy="180.0" r="2.1" fill="#94a3b8" opacity="0.28"/>
<circle cx="72.0" cy="285.0" r="2.1" fill="#94a3b8" opacity="0.28"/>
<circle cx="72.0" cy="390.0" r="2.1" fill="#94a3b8" opacity="0.28"/>
<circle cx="72.0" cy="495.0" r="2.1" fill="#94a3b8" opacity="0.28"/>
<circle cx="72.0" cy="600.0" r="2.1" fill="#94a3b8" opacity="0.28"/>
<circle cx="72.0" cy="705.0" r="2.1" fill="#94a3b8" opacity="0.28"/>
<circle cx="72.0" cy="810.0" r="2.1" fill="#94a3b8" opacity="0.28"/>
<circle cx="166.5" cy="180.0" r="2.1" fill="#94a3b8" opacity="0.28"/>
<circle cx="166.5" cy="285.0" r="2.1" fill="#94a3b8" opacity="0.28"/>
<circle cx="166.5" cy="390.0" r="2.1" fill="#94a3b8" opacity="0.28"/>
<circle cx="166.5" cy="495.0" r="2.1" fill="#94a3b8" opacity="0.28"/>
<circle cx="166.5" cy="600.0" r="2.1" fill="#94a3b8" opacity="0.28"/>
<circle cx="166.5" cy="705.0" r="2.1" fill="#94a3b8" opacity="0.28"/>
<circle cx="166.5" cy="810.0" r="2.1" fill="#94a3b8" opacity="0.28"/>
<circle cx="261.0" cy="180.0" r="2.1" fill="#94a3b8" opacity="0.28"/>
<circle cx="261.0" cy="285.0" r="2.1" fill="#94a3b8" opacity="0.28"/>
<circle cx="261.0" cy="390.0" r="2.1" fill="#94a3b8" opacity="0.28"/>
<circle cx="261.0" cy="495.0" r="2.1" fill="#94a3b8" opacity="0.28"/>
<circle cx="261.0" cy="600.0" r="2.1" fill="#94a3b8" opacity="0.28"/>
<circle cx="261.0" cy="705.0" r="2.1" fill="#94a3b8" opacity="0.28"/>
<circle cx="261.0" cy="810.0" r="2.1" fill="#94a3b8" opacity="0.28"/>
<circle cx="355.5" cy="180.0" r="2.1" fill="#94a3b8" opacity="0.28"/>
<circle cx="355.5" cy="285.0" r="2.1" fill="#94a3b8" opacity="0.28"/>
<circle cx="355.5" cy="390.0" r="2.1" fill="#94a3b8" opacity="0.28"/>
<circle cx="355.5" cy="495.0" r="2.1" fill="#94a3b8" opacity="0.28"/>
<circle cx="355.5" cy="600.0" r="2.1" fill="#94a3b8" opacity="0.28"/>
<circle cx="355.5" cy="705.0" r="2.1" fill="#94a3b8" opacity="0.28"/>
<circle cx="355.5" cy="810.0" r="2.1" fill="#94a3b8" opacity="0.28"/>
<circle cx="450.0" cy="180.0" r="2.1" fill="#94a3b8" opacity="0.28"/>
<circle cx="450.0" cy="285.0" r="2.1" fill="#94a3b8" opacity="0.28"/>
<circle cx="450.0" cy="390.0" r="2.1" fill="#94a3b8" opacity="0.28"/>
<circle cx="450.0" cy="495.0" r="2.1" fill="#94a3b8" opacity="0.28"/>
<circle cx="450.0" cy="600.0" r="2.1" fill="#94a3b8" opacity="0.28"/>
<circle cx="450.0" cy="705.0" r="2.1" fill="#94a3b8" opacity="0.28"/>
<circle cx="450.0" cy="810.0" r="2.1" fill="#94a3b8" opacity="0.28"/>
<circle cx="544.5" cy="180.0" r="2.1" fill="#94a3b8" opacity="0.28"/>
<circle cx="544.5" cy="285.0" r="2.1" fill="#94a3b8" opacity="0.28"/>
<circle cx="544.5" cy="390.0" r="2.1" fill="#94a3b8" opacity="0.28"/>
<circle cx="544.5" cy="495.0" r="2.1" fill="#94a3b8" opacity="0.28"/>
<circle cx="544.5" cy="600.0" r="2.1" fill="#94a3b8" opacity="0.28"/>
<circle cx="544.5" cy="705.0" r="2.1" fill="#94a3b8" opacity="0.28"/>
<circle cx="544.5" cy="810.0" r="2.1" fill="#94a3b8" opacity="0.28"/>
<circle cx="639.0" cy="180.0" r="2.1" fill="#94a3b8" opacity="0.28"/>
<circle cx="639.0" cy="285.0" r="2.1" fill="#94a3b8" opacity="0.28"/>
<circle cx="639.0" cy="390.0" r="2.1" fill="#94a3b8" opacity="0.28"/>
<circle cx="639.0" cy="495.0" r="2.1" fill="#94a3b8" opacity="0.28"/>
<circle cx="639.0" cy="600.0" r="2.1" fill="#94a3b8" opacity="0.28"/>
<circle cx="639.0" cy="705.0" r="2.1" fill="#94a3b8" opacity="0.28"/>
<circle cx="639.0" cy="810.0" r="2.1" fill="#94a3b8" opacity="0.28"/>
<circle cx="733.5" cy="180.0" r="2.1" fill="#94a3b8" opacity="0.28"/>
<circle cx="733.5" cy="285.0" r="2.1" fill="#94a3b8" opacity="0.28"/>
<circle cx="733.5" cy="390.0" r="2.1" fill="#94a3b8" opacity="0.28"/>
<circle cx="733.5" cy="495.0" r="2.1" fill="#94a3b8" opacity="0.28"/>
<circle cx="733.5" cy="600.0" r="2.1" fill="#94a3b8" opacity="0.28"/>
<circle cx="733.5" cy="705.0" r="2.1" fill="#94a3b8" opacity="0.28"/>
<circle cx="733.5" cy="810.0" r="2.1" fill="#94a3b8" opacity="0.28"/>
<circle cx="828.0" cy="180.0" r="2.1" fill="#94a3b8" opacity="0.28"/>
<circle cx="828.0" cy="285.0" r="2.1" fill="#94a3b8" opacity="0.28"/>
<circle cx="828.0" cy="390.0" r="2.1" fill="#94a3b8" opacity="0.28"/>
<circle cx="828.0" cy="495.0" r="2.1" fill="#94a3b8" opacity="0.28"/>
<circle cx="828.0" cy="600.0" r="2.1" fill="#94a3b8" opacity="0.28"/>
<circle cx="828.0" cy="705.0" r="2.1" fill="#94a3b8" opacity="0.28"/>
<circle cx="828.0" cy="810.0" r="2.1" fill="#94a3b8" opacity="0.28"/>
<circle cx="475.8" cy="439.7" r="14.3" fill="#5eead4" opacity="0.120" filter="url(#soft)"/>
<circle cx="460.6" cy="430.7" r="16.3" fill="#5eead4" opacity="0.116" filter="url(#soft)"/>
<circle cx="445.4" cy="421.8" r="18.4" fill="#5eead4" opacity="0.112" filter="url(#soft)"/>
<circle cx="430.2" cy="412.8" r="20.7" fill="#5eead4" opacity="0.108" filter="url(#soft)"/>
<circle cx="415.0" cy="403.9" r="23.0" fill="#5eead4" opacity="0.104" filter="url(#soft)"/>
<circle cx="399.8" cy="395.0" r="25.5" fill="#5eead4" opacity="0.100" filter="url(#soft)"/>
<circle cx="384.6" cy="386.0" r="28.1" fill="#5eead4" opacity="0.096" filter="url(#soft)"/>
<circle cx="369.3" cy="377.1" r="30.7" fill="#5eead4" opacity="0.092" filter="url(#soft)"/>
<circle cx="354.1" cy="368.1" r="33.4" fill="#5eead4" opacity="0.088" filter="url(#soft)"/>
<circle cx="338.9" cy="359.2" r="36.2" fill="#5eead4" opacity="0.084" filter="url(#soft)"/>
<circle cx="323.7" cy="350.2" r="39.1" fill="#5eead4" opacity="0.080" filter="url(#soft)"/>
<circle cx="308.5" cy="341.3" r="42.0" fill="#5eead4" opacity="0.076" filter="url(#soft)"/>
<circle cx="293.3" cy="332.4" r="45.0" fill="#5eead4" opacity="0.072" filter="url(#soft)"/>
<circle cx="278.1" cy="323.4" r="48.0" fill="#5eead4" opacity="0.068" filter="url(#soft)"/>
<circle cx="262.9" cy="314.5" r="48.0" fill="#5eead4" opacity="0.064" filter="url(#soft)"/>
<circle cx="247.7" cy="305.5" r="48.0" fill="#5eead4" opacity="0.060" filter="url(#soft)"/>
<circle cx="232.5" cy="296.6" r="48.0" fill="#5eead4" opacity="0.056" filter="url(#soft)"/>
<circle cx="217.3" cy="287.6" r="48.0" fill="#5eead4" opacity="0.052" filter="url(#soft)"/>
<circle cx="404.0" cy="377.2" r="14.1" fill="#f97316" opacity="0.120" filter="url(#soft)"/>
<circle cx="394.3" cy="374.5" r="16.1" fill="#f97316" opacity="0.116" filter="url(#soft)"/>
<circle cx="384.7" cy="371.9" r="18.2" fill="#f97316" opacity="0.112" filter="url(#soft)"/>
<circle cx="375.0" cy="369.3" r="20.5" fill="#f97316" opacity="0.108" filter="url(#soft)"/>
<circle cx="365.4" cy="366.7" r="22.9" fill="#f97316" opacity="0.104" filter="url(#soft)"/>
<circle cx="355.7" cy="364.1" r="25.3" fill="#f97316" opacity="0.100" filter="url(#soft)"/>
<circle cx="346.1" cy="361.4" r="27.9" fill="#f97316" opacity="0.096" filter="url(#soft)"/>
<circle cx="336.4" cy="358.8" r="30.6" fill="#f97316" opacity="0.092" filter="url(#soft)"/>
<circle cx="326.7" cy="356.2" r="33.3" fill="#f97316" opacity="0.088" filter="url(#soft)"/>
<circle cx="317.1" cy="353.6" r="36.1" fill="#f97316" opacity="0.084" filter="url(#soft)"/>
<circle cx="307.4" cy="351.0" r="39.0" fill="#f97316" opacity="0.080" filter="url(#soft)"/>
<circle cx="297.8" cy="348.3" r="41.9" fill="#f97316" opacity="0.076" filter="url(#soft)"/>
<circle cx="288.1" cy="345.7" r="45.0" fill="#f97316" opacity="0.072" filter="url(#soft)"/>
<circle cx="278.5" cy="343.1" r="48.0" fill="#f97316" opacity="0.068" filter="url(#soft)"/>
<circle cx="268.8" cy="340.5" r="48.0" fill="#f97316" opacity="0.064" filter="url(#soft)"/>
<circle cx="259.2" cy="337.8" r="48.0" fill="#f97316" opacity="0.060" filter="url(#soft)"/>
<circle cx="249.5" cy="335.2" r="48.0" fill="#f97316" opacity="0.056" filter="url(#soft)"/>
<circle cx="239.9" cy="332.6" r="48.0" fill="#f97316" opacity="0.052" filter="url(#soft)"/>
<circle cx="411.0" cy="469.5" r="15.2" fill="#a78bfa" opacity="0.120" filter="url(#soft)"/>
<circle cx="404.5" cy="468.0" r="17.3" fill="#a78bfa" opacity="0.116" filter="url(#soft)"/>
<circle cx="398.1" cy="466.6" r="19.5" fill="#a78bfa" opacity="0.112" filter="url(#soft)"/>
<circle cx="391.6" cy="465.1" r="21.8" fill="#a78bfa" opacity="0.108" filter="url(#soft)"/>
<circle cx="385.2" cy="463.6" r="24.2" fill="#a78bfa" opacity="0.104" filter="url(#soft)"/>
<circle cx="378.7" cy="462.2" r="26.7" fill="#a78bfa" opacity="0.100" filter="url(#soft)"/>
<circle cx="372.3" cy="460.7" r="29.3" fill="#a78bfa" opacity="0.096" filter="url(#soft)"/>
<circle cx="365.9" cy="459.3" r="32.0" fill="#a78bfa" opacity="0.092" filter="url(#soft)"/>
<circle cx="359.4" cy="457.8" r="34.7" fill="#a78bfa" opacity="0.088" filter="url(#soft)"/>
<circle cx="353.0" cy="456.4" r="37.6" fill="#a78bfa" opacity="0.084" filter="url(#soft)"/>
<circle cx="346.5" cy="454.9" r="40.5" fill="#a78bfa" opacity="0.080" filter="url(#soft)"/>
<circle cx="340.1" cy="453.4" r="43.5" fill="#a78bfa" opacity="0.076" filter="url(#soft)"/>
<circle cx="333.6" cy="452.0" r="46.5" fill="#a78bfa" opacity="0.072" filter="url(#soft)"/>
<circle cx="327.2" cy="450.5" r="48.0" fill="#a78bfa" opacity="0.068" filter="url(#soft)"/>
<circle cx="320.7" cy="449.1" r="48.0" fill="#a78bfa" opacity="0.064" filter="url(#soft)"/>
<circle cx="314.3" cy="447.6" r="48.0" fill="#a78bfa" opacity="0.060" filter="url(#soft)"/>
<circle cx="307.9" cy="446.1" r="48.0" fill="#a78bfa" opacity="0.056" filter="url(#soft)"/>
<circle cx="301.4" cy="444.7" r="48.0" fill="#a78bfa" opacity="0.052" filter="url(#soft)"/>
<circle cx="493.2" cy="359.6" r="14.3" fill="#facc15" opacity="0.120" filter="url(#soft)"/>
<circle cx="506.5" cy="356.8" r="16.2" fill="#facc15" opacity="0.116" filter="url(#soft)"/>
<circle cx="519.9" cy="354.1" r="18.4" fill="#facc15" opacity="0.112" filter="url(#soft)"/>
<circle cx="533.2" cy="351.3" r="20.7" fill="#facc15" opacity="0.108" filter="url(#soft)"/>
<circle cx="546.6" cy="348.6" r="23.0" fill="#facc15" opacity="0.104" filter="url(#soft)"/>
<circle cx="559.9" cy="345.8" r="25.5" fill="#facc15" opacity="0.100" filter="url(#soft)"/>
<circle cx="573.3" cy="343.1" r="28.1" fill="#facc15" opacity="0.096" filter="url(#soft)"/>
<circle cx="586.6" cy="340.3" r="30.8" fill="#facc15" opacity="0.092" filter="url(#soft)"/>
<circle cx="600.0" cy="337.6" r="33.5" fill="#facc15" opacity="0.088" filter="url(#soft)"/>
<circle cx="613.3" cy="334.9" r="36.3" fill="#facc15" opacity="0.084" filter="url(#soft)"/>
<circle cx="626.6" cy="332.1" r="39.2" fill="#facc15" opacity="0.080" filter="url(#soft)"/>
<circle cx="640.0" cy="329.4" r="42.2" fill="#facc15" opacity="0.076" filter="url(#soft)"/>
<circle cx="653.3" cy="326.6" r="45.2" fill="#facc15" opacity="0.072" filter="url(#soft)"/>
<circle cx="666.7" cy="323.9" r="48.0" fill="#facc15" opacity="0.068" filter="url(#soft)"/>
<circle cx="680.0" cy="321.1" r="48.0" fill="#facc15" opacity="0.064" filter="url(#soft)"/>
<circle cx="693.4" cy="318.4" r="48.0" fill="#facc15" opacity="0.060" filter="url(#soft)"/>
<circle cx="706.7" cy="315.6" r="48.0" fill="#facc15" opacity="0.056" filter="url(#soft)"/>
<circle cx="720.1" cy="312.9" r="48.0" fill="#facc15" opacity="0.052" filter="url(#soft)"/>
<polyline points="72.0,285.0 450.0,285.0 450.0,495.0 828.0,495.0" fill="none" stroke="#5eead4" stroke-width="6" stroke-linecap="round" stroke-linejoin="round" opacity="0.18"/>
<path d="M 239.2 285.0 L 248.3 285.0 L 257.4 285.0 L 266.5 285.0 L 275.7 285.0 L 284.8 285.0 L 293.9 285.0 L 303.0 285.0 L 312.1 285.0 L 321.2 285.0 L 330.4 285.0 L 339.5 285.0 L 348.6 285.0 L 357.7 285.0 L 366.8 285.0 L 375.9 285.0 L 385.1 285.0 L 394.2 285.0 L 403.3 285.0 L 412.4 285.0 L 421.5 285.0 L 430.6 285.0 L 439.8 285.0 L 448.9 285.0 L 450.0 293.0 L 450.0 302.1 L 450.0 311.2 L 450.0 320.3 L 450.0 329.4 L 450.0 338.6 L 450.0 347.7 L 450.0 356.8 L 450.0 365.9 L 450.0 375.0 L 450.0 384.1 L 450.0 393.3 L 450.0 402.4 L 450.0 411.5 L 450.0 420.6 L 450.0 429.7 L 450.0 438.8 L 450.0 448.0 L 450.0 457.1 L 450.0 466.2 L 450.0 475.3 L 450.0 484.4 L 450.0 493.5 L 457.7 495.0 L 466.8 495.0 L 475.9 495.0 L 485.0 495.0 L 494.1 495.0 L 503.2 495.0 L 512.3 495.0 L 521.5 495.0 L 530.6 495.0 L 539.7 495.0 L 548.8 495.0 L 557.9 495.0 L 567.0 495.0 L 576.2 495.0 L 585.3 495.0 L 594.4 495.0 L 603.5 495.0 L 612.6 495.0 L 621.7 495.0 L 630.9 495.0 L 640.0 495.0 L 649.1 495.0 L 658.2 495.0 L 667.3 495.0 L 676.4 495.0 L 685.6 495.0 L 694.7 495.0 L 703.8 495.0 L 712.9 495.0 L 722.0 495.0 L 731.1 495.0 L 740.3 495.0 L 749.4 495.0 L 758.5 495.0 L 767.6 495.0 L 776.7 495.0 L 785.8 495.0 L 794.9 495.0 L 804.1 495.0 L 813.2 495.0 L 822.3 495.0 L 824.6 495.0 L 815.5 495.0 L 806.4 495.0 L 797.2 495.0 L 788.1 495.0 L 779.0 495.0 L 769.9 495.0 L 760.8 495.0 L 751.7 495.0 L 742.5 495.0 L 733.4 495.0 L 724.3 495.0 L 715.2 495.0 L 706.1 495.0 L 697.0 495.0 L 687.8 495.0 L 678.7 495.0 L 669.6 495.0 L 660.5 495.0 L 651.4 495.0 L 642.3 495.0 L 633.2 495.0 L 624.0 495.0 L 614.9 495.0 L 605.8 495.0 L 596.7 495.0 L 587.6 495.0 L 578.5 495.0 L 569.3 495.0 L 560.2 495.0 L 551.1 495.0 L 542.0 495.0" fill="none" stroke="#5eead4" stroke-width="1.2" stroke-dasharray="5 6" opacity="0.45"/>
<circle cx="236.2" cy="278.2" r="2.6" fill="#ff9f66" opacity="0.48"/>
<circle cx="273.3" cy="298.3" r="2.6" fill="#ff9f66" opacity="0.48"/>
<circle cx="283.4" cy="266.9" r="2.6" fill="#ff9f66" opacity="0.48"/>
<circle cx="305.0" cy="293.8" r="2.6" fill="#ff9f66" opacity="0.48"/>
<circle cx="321.4" cy="298.9" r="2.6" fill="#ff9f66" opacity="0.48"/>
<circle cx="320.4" cy="325.4" r="2.6" fill="#ff9f66" opacity="0.48"/>
<circle cx="312.1" cy="270.5" r="2.6" fill="#ff9f66" opacity="0.48"/>
<circle cx="325.7" cy="268.4" r="2.6" fill="#ff9f66" opacity="0.48"/>
<circle cx="372.8" cy="291.6" r="2.6" fill="#ff9f66" opacity="0.48"/>
<circle cx="405.9" cy="286.3" r="2.6" fill="#ff9f66" opacity="0.48"/>
<circle cx="393.2" cy="287.9" r="2.6" fill="#ff9f66" opacity="0.48"/>
<circle cx="467.3" cy="302.1" r="2.6" fill="#ff9f66" opacity="0.48"/>
<circle cx="429.7" cy="305.9" r="2.6" fill="#ff9f66" opacity="0.48"/>
<circle cx="490.1" cy="329.5" r="2.6" fill="#ff9f66" opacity="0.48"/>
<circle cx="486.6" cy="384.1" r="2.6" fill="#ff9f66" opacity="0.48"/>
<circle cx="425.0" cy="352.7" r="2.6" fill="#ff9f66" opacity="0.48"/>
<circle cx="405.9" cy="437.2" r="2.6" fill="#ff9f66" opacity="0.48"/>
<circle cx="503.7" cy="369.2" r="2.6" fill="#ff9f66" opacity="0.48"/>
<circle cx="504.4" cy="363.2" r="2.6" fill="#ff9f66" opacity="0.48"/>
<circle cx="509.4" cy="320.2" r="2.6" fill="#ff9f66" opacity="0.48"/>
<circle cx="451.0" cy="509.6" r="2.6" fill="#ff9f66" opacity="0.48"/>
<circle cx="515.1" cy="455.3" r="2.6" fill="#ff9f66" opacity="0.48"/>
<circle cx="239.8" cy="718.1" r="2.6" fill="#ff9f66" opacity="0.48"/>
<circle cx="558.6" cy="492.4" r="2.6" fill="#ff9f66" opacity="0.48"/>
<circle cx="399.1" cy="436.5" r="2.6" fill="#ff9f66" opacity="0.48"/>
<circle cx="454.8" cy="422.0" r="2.6" fill="#ff9f66" opacity="0.48"/>
<circle cx="509.8" cy="495.3" r="2.6" fill="#ff9f66" opacity="0.48"/>
<circle cx="454.5" cy="475.6" r="2.6" fill="#ff9f66" opacity="0.48"/>
<circle cx="567.7" cy="465.0" r="2.6" fill="#ff9f66" opacity="0.48"/>
<circle cx="594.2" cy="589.9" r="2.6" fill="#ff9f66" opacity="0.48"/>
<circle cx="627.6" cy="472.3" r="2.6" fill="#ff9f66" opacity="0.48"/>
<circle cx="650.1" cy="462.9" r="2.6" fill="#ff9f66" opacity="0.48"/>
<circle cx="617.9" cy="502.8" r="2.6" fill="#ff9f66" opacity="0.48"/>
<circle cx="635.2" cy="492.2" r="2.6" fill="#ff9f66" opacity="0.48"/>
<circle cx="660.7" cy="528.0" r="2.6" fill="#ff9f66" opacity="0.48"/>
<circle cx="733.2" cy="491.8" r="2.6" fill="#ff9f66" opacity="0.48"/>
<circle cx="673.0" cy="498.3" r="2.6" fill="#ff9f66" opacity="0.48"/>
<circle cx="712.0" cy="480.2" r="2.6" fill="#ff9f66" opacity="0.48"/>
<circle cx="735.3" cy="473.8" r="2.6" fill="#ff9f66" opacity="0.48"/>
<circle cx="760.8" cy="494.3" r="2.6" fill="#ff9f66" opacity="0.48"/>
<circle cx="770.2" cy="489.0" r="2.6" fill="#ff9f66" opacity="0.48"/>
<circle cx="785.5" cy="489.1" r="2.6" fill="#ff9f66" opacity="0.48"/>
<circle cx="819.7" cy="486.4" r="2.6" fill="#ff9f66" opacity="0.48"/>
<circle cx="834.0" cy="502.6" r="2.6" fill="#ff9f66" opacity="0.48"/>
<circle cx="808.5" cy="505.5" r="2.6" fill="#ff9f66" opacity="0.48"/>
<circle cx="780.5" cy="492.7" r="2.6" fill="#ff9f66" opacity="0.48"/>
<circle cx="760.3" cy="497.2" r="2.6" fill="#ff9f66" opacity="0.48"/>
<circle cx="754.2" cy="497.9" r="2.6" fill="#ff9f66" opacity="0.48"/>
<circle cx="746.0" cy="497.4" r="2.6" fill="#ff9f66" opacity="0.48"/>
<circle cx="730.0" cy="500.2" r="2.6" fill="#ff9f66" opacity="0.48"/>
<circle cx="713.5" cy="504.3" r="2.6" fill="#ff9f66" opacity="0.48"/>
<circle cx="658.0" cy="460.8" r="2.6" fill="#ff9f66" opacity="0.48"/>
<circle cx="647.2" cy="681.5" r="2.6" fill="#ff9f66" opacity="0.48"/>
<circle cx="687.3" cy="530.6" r="2.6" fill="#ff9f66" opacity="0.48"/>
<circle cx="621.8" cy="502.3" r="2.6" fill="#ff9f66" opacity="0.48"/>
<circle cx="564.3" cy="543.6" r="2.6" fill="#ff9f66" opacity="0.48"/>
<circle cx="646.7" cy="549.1" r="2.6" fill="#ff9f66" opacity="0.48"/>
<circle cx="582.0" cy="489.4" r="2.6" fill="#ff9f66" opacity="0.48"/>
<circle cx="367.6" cy="537.1" r="2.6" fill="#ff9f66" opacity="0.48"/>
<path d="M 237.5 281.1 L 236.4 293.6 L 255.0 298.3 L 240.2 311.6 L 261.2 293.6 L 265.4 298.5 L 285.5 297.2 L 309.2 286.8 L 321.8 290.1 L 326.9 291.0 L 331.5 303.2 L 337.3 286.7 L 334.0 279.7 L 354.6 293.6 L 350.6 285.4 L 343.1 275.3 L 355.3 278.8 L 385.6 281.9 L 399.6 283.0 L 406.7 273.8 L 409.0 277.2 L 417.9 264.8 L 440.6 275.3 L 442.2 272.4 L 444.6 282.7 L 450.7 291.1 L 467.8 304.6 L 470.9 305.6 L 481.3 331.0 L 470.2 334.5 L 461.4 345.0 L 469.7 354.5 L 455.5 382.3 L 445.7 384.4 L 459.2 388.1 L 460.2 403.4 L 471.9 401.1 L 478.9 404.0 L 489.0 389.1 L 465.6 427.3 L 462.2 454.1 L 456.3 457.5 L 469.5 465.0 L 481.0 488.0 L 424.2 553.2 L 414.8 571.0 L 408.0 590.8 L 412.2 568.4 L 451.0 556.0 L 451.9 566.1 L 434.3 527.9 L 484.3 514.9 L 479.1 487.7 L 482.3 483.8 L 493.0 485.2 L 486.7 487.8 L 479.4 483.2 L 479.5 501.4 L 507.5 491.0 L 510.2 493.9 L 540.7 524.7 L 548.5 519.7 L 581.1 505.9 L 597.5 496.4 L 624.8 483.8 L 648.1 491.8 L 648.0 495.0 L 680.5 515.5 L 674.2 508.9 L 665.4 486.2 L 668.7 500.7 L 687.7 511.7 L 712.0 505.2 L 698.7 504.6 L 692.1 502.2 L 695.8 488.4 L 704.9 482.9 L 720.7 491.2 L 731.4 483.2 L 733.4 484.8 L 749.2 488.0 L 774.6 483.4 L 780.2 485.0 L 790.8 486.5 L 794.8 487.6 L 810.0 489.8 L 820.4 488.7 L 829.0 486.0 L 836.8 493.0 L 829.1 505.2 L 822.9 508.0 L 810.2 510.3 L 796.3 504.9 L 786.5 506.2 L 771.7 503.1 L 768.1 506.2 L 758.0 503.4 L 737.9 507.8 L 734.1 504.4 L 723.6 497.9 L 719.9 497.6 L 715.5 497.9 L 710.2 499.6 L 699.8 494.0 L 680.4 481.6 L 672.9 497.1 L 657.9 557.3 L 641.6 551.4 L 647.3 551.6 L 621.7 541.7 L 613.2 532.9 L 606.5 528.0 L 587.3 532.3 L 575.2 533.1 L 590.9 539.0 L 583.9 540.7 L 578.7 523.4 L 551.5 428.3 L 491.9 447.5 L 491.0 448.6" fill="none" stroke="#5eead4" stroke-width="3.2" stroke-linecap="round" stroke-linejoin="round" opacity="0.92"/>
<path d="M 475.8 439.7 L 460.6 430.7 L 445.4 421.8 L 430.2 412.8 L 415.0 403.9 L 399.8 395.0 L 384.6 386.0 L 369.3 377.1 L 354.1 368.1 L 338.9 359.2 L 323.7 350.2 L 308.5 341.3 L 293.3 332.4 L 278.1 323.4 L 262.9 314.5 L 247.7 305.5 L 232.5 296.6 L 217.3 287.6" fill="none" stroke="#5eead4" stroke-width="2.2" stroke-linecap="round" stroke-dasharray="3 6" opacity="0.72"/>
<circle cx="491.0" cy="448.6" r="8.5" fill="#071018" stroke="#5eead4" stroke-width="3"/>
<circle cx="491.0" cy="448.6" r="3" fill="#5eead4"/>
<polyline points="261.0,180.0 261.0,390.0 639.0,390.0 639.0,810.0" fill="none" stroke="#f97316" stroke-width="6" stroke-linecap="round" stroke-linejoin="round" opacity="0.18"/>
<path d="M 491.2 390.0 L 501.4 390.0 L 511.7 390.0 L 522.0 390.0 L 532.2 390.0 L 542.5 390.0 L 552.7 390.0 L 563.0 390.0 L 573.2 390.0 L 583.5 390.0 L 593.8 390.0 L 604.0 390.0 L 614.3 390.0 L 624.5 390.0 L 634.8 390.0 L 639.0 396.0 L 639.0 406.3 L 639.0 416.5 L 639.0 426.8 L 639.0 437.1 L 639.0 447.3 L 639.0 457.6 L 639.0 467.8 L 639.0 478.1 L 639.0 488.3 L 639.0 498.6 L 639.0 508.9 L 639.0 519.1 L 639.0 529.4 L 639.0 539.6 L 639.0 549.9 L 639.0 560.1 L 639.0 570.4 L 639.0 580.6 L 639.0 590.9 L 639.0 601.2 L 639.0 611.4 L 639.0 621.7 L 639.0 631.9 L 639.0 642.2 L 639.0 652.4 L 639.0 662.7 L 639.0 673.0 L 639.0 683.2 L 639.0 693.5 L 639.0 703.7 L 639.0 714.0 L 639.0 724.2 L 639.0 734.5 L 639.0 744.8 L 639.0 755.0 L 639.0 765.3 L 639.0 775.5 L 639.0 785.8 L 639.0 796.0 L 639.0 806.3 L 639.0 803.5 L 639.0 793.2 L 639.0 782.9 L 639.0 772.7 L 639.0 762.4 L 639.0 752.2 L 639.0 741.9 L 639.0 731.7 L 639.0 721.4 L 639.0 711.1 L 639.0 700.9 L 639.0 690.6 L 639.0 680.4 L 639.0 670.1 L 639.0 659.9 L 639.0 649.6 L 639.0 639.3 L 639.0 629.1 L 639.0 618.8 L 639.0 608.6 L 639.0 598.3 L 639.0 588.1 L 639.0 577.8 L 639.0 567.6 L 639.0 557.3 L 639.0 547.0 L 639.0 536.8 L 639.0 526.5 L 639.0 516.3 L 639.0 506.0 L 639.0 495.8 L 639.0 485.5 L 639.0 475.2 L 639.0 465.0 L 639.0 454.7 L 639.0 444.5 L 639.0 434.2 L 639.0 424.0 L 639.0 413.7 L 639.0 403.5 L 639.0 393.2 L 631.9 390.0 L 621.7 390.0 L 611.4 390.0 L 601.2 390.0 L 590.9 390.0 L 580.7 390.0 L 570.4 390.0 L 560.1 390.0 L 549.9 390.0 L 539.6 390.0 L 529.4 390.0 L 519.1 390.0 L 508.9 390.0 L 498.6 390.0 L 488.3 390.0 L 478.1 390.0 L 467.8 390.0 L 457.6 390.0 L 447.3 390.0 L 437.1 390.0 L 426.8 390.0 L 416.6 390.0 L 406.3 390.0" fill="none" stroke="#f97316" stroke-width="1.2" stroke-dasharray="5 6" opacity="0.45"/>
<circle cx="461.6" cy="404.1" r="2.6" fill="#ff9f66" opacity="0.48"/>
<circle cx="496.3" cy="400.6" r="2.6" fill="#ff9f66" opacity="0.48"/>
<circle cx="597.6" cy="364.5" r="2.6" fill="#ff9f66" opacity="0.48"/>
<circle cx="591.5" cy="441.6" r="2.6" fill="#ff9f66" opacity="0.48"/>
<circle cx="562.3" cy="339.0" r="2.6" fill="#ff9f66" opacity="0.48"/>
<circle cx="576.9" cy="397.9" r="2.6" fill="#ff9f66" opacity="0.48"/>
<circle cx="623.4" cy="398.6" r="2.6" fill="#ff9f66" opacity="0.48"/>
<circle cx="633.3" cy="377.9" r="2.6" fill="#ff9f66" opacity="0.48"/>
<circle cx="642.3" cy="434.5" r="2.6" fill="#ff9f66" opacity="0.48"/>
<circle cx="618.2" cy="435.7" r="2.6" fill="#ff9f66" opacity="0.48"/>
<circle cx="597.2" cy="481.3" r="2.6" fill="#ff9f66" opacity="0.48"/>
<circle cx="571.0" cy="464.9" r="2.6" fill="#ff9f66" opacity="0.48"/>
<circle cx="634.3" cy="525.5" r="2.6" fill="#ff9f66" opacity="0.48"/>
<circle cx="665.5" cy="544.1" r="2.6" fill="#ff9f66" opacity="0.48"/>
<circle cx="610.3" cy="581.2" r="2.6" fill="#ff9f66" opacity="0.48"/>
<circle cx="589.0" cy="524.5" r="2.6" fill="#ff9f66" opacity="0.48"/>
<circle cx="641.6" cy="524.1" r="2.6" fill="#ff9f66" opacity="0.48"/>
<circle cx="641.8" cy="582.8" r="2.6" fill="#ff9f66" opacity="0.48"/>
<circle cx="626.3" cy="635.2" r="2.6" fill="#ff9f66" opacity="0.48"/>
<circle cx="652.0" cy="654.5" r="2.6" fill="#ff9f66" opacity="0.48"/>
<circle cx="675.8" cy="683.7" r="2.6" fill="#ff9f66" opacity="0.48"/>
<circle cx="659.8" cy="717.8" r="2.6" fill="#ff9f66" opacity="0.48"/>
<circle cx="614.2" cy="725.7" r="2.6" fill="#ff9f66" opacity="0.48"/>
<circle cx="632.1" cy="760.7" r="2.6" fill="#ff9f66" opacity="0.48"/>
<circle cx="602.0" cy="786.3" r="2.6" fill="#ff9f66" opacity="0.48"/>
<circle cx="657.6" cy="812.1" r="2.6" fill="#ff9f66" opacity="0.48"/>
<circle cx="613.6" cy="806.1" r="2.6" fill="#ff9f66" opacity="0.48"/>
<circle cx="646.5" cy="797.2" r="2.6" fill="#ff9f66" opacity="0.48"/>
<circle cx="649.8" cy="763.4" r="2.6" fill="#ff9f66" opacity="0.48"/>
<circle cx="623.1" cy="756.0" r="2.6" fill="#ff9f66" opacity="0.48"/>
<circle cx="658.1" cy="739.8" r="2.6" fill="#ff9f66" opacity="0.48"/>
<circle cx="612.6" cy="693.1" r="2.6" fill="#ff9f66" opacity="0.48"/>
<circle cx="668.0" cy="694.8" r="2.6" fill="#ff9f66" opacity="0.48"/>
<circle cx="621.5" cy="631.4" r="2.6" fill="#ff9f66" opacity="0.48"/>
<circle cx="672.3" cy="624.4" r="2.6" fill="#ff9f66" opacity="0.48"/>
<circle cx="656.0" cy="642.0" r="2.6" fill="#ff9f66" opacity="0.48"/>
<circle cx="662.3" cy="592.3" r="2.6" fill="#ff9f66" opacity="0.48"/>
<circle cx="613.7" cy="604.3" r="2.6" fill="#ff9f66" opacity="0.48"/>
<circle cx="606.0" cy="535.7" r="2.6" fill="#ff9f66" opacity="0.48"/>
<circle cx="604.8" cy="546.0" r="2.6" fill="#ff9f66" opacity="0.48"/>
<circle cx="640.1" cy="506.5" r="2.6" fill="#ff9f66" opacity="0.48"/>
<circle cx="633.2" cy="492.3" r="2.6" fill="#ff9f66" opacity="0.48"/>
<circle cx="589.4" cy="389.9" r="2.6" fill="#ff9f66" opacity="0.48"/>
<circle cx="611.3" cy="461.1" r="2.6" fill="#ff9f66" opacity="0.48"/>
<circle cx="635.5" cy="367.1" r="2.6" fill="#ff9f66" opacity="0.48"/>
<circle cx="582.9" cy="393.7" r="2.6" fill="#ff9f66" opacity="0.48"/>
<circle cx="580.0" cy="350.4" r="2.6" fill="#ff9f66" opacity="0.48"/>
<circle cx="587.5" cy="372.7" r="2.6" fill="#ff9f66" opacity="0.48"/>
<circle cx="502.2" cy="333.8" r="2.6" fill="#ff9f66" opacity="0.48"/>
<circle cx="507.0" cy="431.2" r="2.6" fill="#ff9f66" opacity="0.48"/>
<circle cx="499.0" cy="386.7" r="2.6" fill="#ff9f66" opacity="0.48"/>
<circle cx="620.7" cy="328.8" r="2.6" fill="#ff9f66" opacity="0.48"/>
<circle cx="465.9" cy="402.7" r="2.6" fill="#ff9f66" opacity="0.48"/>
<circle cx="517.1" cy="407.8" r="2.6" fill="#ff9f66" opacity="0.48"/>
<circle cx="443.9" cy="566.3" r="2.6" fill="#ff9f66" opacity="0.48"/>
<circle cx="454.4" cy="380.4" r="2.6" fill="#ff9f66" opacity="0.48"/>
<path d="M 486.2 392.4 L 487.7 400.6 L 490.2 402.1 L 415.6 411.0 L 471.0 396.0 L 524.5 401.2 L 557.4 417.3 L 571.5 392.8 L 586.6 391.1 L 612.8 374.5 L 600.7 356.7 L 611.0 384.4 L 604.9 389.2 L 588.6 393.2 L 604.4 396.0 L 606.7 418.0 L 619.5 407.5 L 631.6 403.3 L 640.6 414.4 L 641.8 429.0 L 638.4 434.9 L 653.2 457.9 L 639.0 471.9 L 627.4 483.0 L 608.2 483.9 L 612.7 496.4 L 618.3 512.4 L 612.7 513.7 L 629.6 529.9 L 622.0 538.3 L 617.9 559.8 L 627.8 567.5 L 614.8 559.4 L 619.6 575.5 L 627.5 562.4 L 628.0 577.5 L 634.0 583.7 L 630.6 616.2 L 629.5 631.1 L 638.5 654.5 L 645.3 663.7 L 629.4 671.4 L 647.6 683.7 L 644.7 690.5 L 646.6 701.6 L 645.8 707.2 L 653.1 717.4 L 652.0 737.4 L 636.6 739.3 L 647.0 741.6 L 641.0 754.3 L 640.0 763.4 L 617.9 780.3 L 615.5 777.7 L 631.9 797.6 L 638.9 807.8 L 629.2 813.1 L 639.7 813.2 L 643.8 810.3 L 648.8 797.6 L 651.2 783.0 L 635.8 770.0 L 629.5 760.2 L 633.6 750.9 L 642.5 741.6 L 643.9 724.6 L 632.7 705.9 L 626.9 698.5 L 640.5 690.0 L 635.0 683.2 L 629.8 658.2 L 622.7 655.6 L 638.4 637.6 L 638.8 634.3 L 645.6 630.2 L 634.2 619.3 L 643.4 604.0 L 655.2 581.8 L 643.9 580.5 L 648.6 574.8 L 635.4 555.4 L 651.4 546.4 L 637.4 538.8 L 627.7 533.2 L 629.7 518.1 L 630.2 493.6 L 630.2 484.2 L 636.0 479.2 L 636.2 468.1 L 638.7 469.8 L 639.3 461.2 L 645.8 467.3 L 623.0 431.2 L 632.8 412.2 L 624.5 422.4 L 630.9 398.8 L 632.5 379.8 L 632.6 370.6 L 616.3 370.0 L 615.0 363.8 L 602.2 353.5 L 601.0 364.8 L 594.0 363.6 L 589.7 351.3 L 561.7 342.2 L 544.0 398.7 L 526.0 411.7 L 511.7 404.6 L 499.1 403.0 L 488.5 396.2 L 514.7 379.4 L 509.1 377.8 L 491.1 384.9 L 462.0 377.5 L 470.5 385.5 L 444.3 386.6 L 436.5 437.9 L 433.6 403.6 L 433.0 398.1 L 413.6 379.8" fill="none" stroke="#f97316" stroke-width="3.2" stroke-linecap="round" stroke-linejoin="round" opacity="0.92"/>
<path d="M 404.0 377.2 L 394.3 374.5 L 384.7 371.9 L 375.0 369.3 L 365.4 366.7 L 355.7 364.1 L 346.1 361.4 L 336.4 358.8 L 326.7 356.2 L 317.1 353.6 L 307.4 351.0 L 297.8 348.3 L 288.1 345.7 L 278.5 343.1 L 268.8 340.5 L 259.2 337.8 L 249.5 335.2 L 239.9 332.6" fill="none" stroke="#f97316" stroke-width="2.2" stroke-linecap="round" stroke-dasharray="3 6" opacity="0.72"/>
<circle cx="413.6" cy="379.8" r="8.5" fill="#071018" stroke="#f97316" stroke-width="3"/>
<circle cx="413.6" cy="379.8" r="3" fill="#f97316"/>
<polyline points="72.0,705.0 261.0,705.0 261.0,495.0 544.5,495.0 544.5,285.0 828.0,285.0" fill="none" stroke="#a78bfa" stroke-width="6" stroke-linecap="round" stroke-linejoin="round" opacity="0.18"/>
<path d="M 261.0 496.9 L 271.1 495.0 L 283.0 495.0 L 294.9 495.0 L 306.9 495.0 L 318.8 495.0 L 330.8 495.0 L 342.7 495.0 L 354.6 495.0 L 366.6 495.0 L 378.5 495.0 L 390.4 495.0 L 402.4 495.0 L 414.3 495.0 L 426.2 495.0 L 438.2 495.0 L 450.1 495.0 L 462.1 495.0 L 474.0 495.0 L 485.9 495.0 L 497.9 495.0 L 509.8 495.0 L 521.7 495.0 L 533.7 495.0 L 544.5 493.9 L 544.5 482.0 L 544.5 470.0 L 544.5 458.1 L 544.5 446.1 L 544.5 434.2 L 544.5 422.3 L 544.5 410.3 L 544.5 398.4 L 544.5 386.5 L 544.5 374.5 L 544.5 362.6 L 544.5 350.7 L 544.5 338.7 L 544.5 326.8 L 544.5 314.8 L 544.5 302.9 L 544.5 291.0 L 550.5 285.0 L 562.4 285.0 L 574.3 285.0 L 586.3 285.0 L 598.2 285.0 L 610.1 285.0 L 622.1 285.0 L 634.0 285.0 L 646.0 285.0 L 657.9 285.0 L 669.8 285.0 L 681.8 285.0 L 693.7 285.0 L 705.6 285.0 L 717.6 285.0 L 729.5 285.0 L 741.4 285.0 L 753.4 285.0 L 765.3 285.0 L 777.3 285.0 L 789.2 285.0 L 801.1 285.0 L 813.1 285.0 L 825.0 285.0 L 819.1 285.0 L 807.1 285.0 L 795.2 285.0 L 783.3 285.0 L 771.3 285.0 L 759.4 285.0 L 747.5 285.0 L 735.5 285.0 L 723.6 285.0 L 711.6 285.0 L 699.7 285.0 L 687.8 285.0 L 675.8 285.0 L 663.9 285.0 L 652.0 285.0 L 640.0 285.0 L 628.1 285.0 L 616.2 285.0 L 604.2 285.0 L 592.3 285.0 L 580.3 285.0 L 568.4 285.0 L 556.5 285.0 L 544.5 285.0 L 544.5 296.9 L 544.5 308.8 L 544.5 320.8 L 544.5 332.7 L 544.5 344.6 L 544.5 356.6 L 544.5 368.5 L 544.5 380.5 L 544.5 392.4 L 544.5 404.3 L 544.5 416.3 L 544.5 428.2 L 544.5 440.1 L 544.5 452.1 L 544.5 464.0 L 544.5 475.9 L 544.5 487.9 L 539.7 495.0 L 527.7 495.0 L 515.8 495.0 L 503.9 495.0 L 491.9 495.0 L 480.0 495.0 L 468.1 495.0 L 456.1 495.0 L 444.2 495.0 L 432.3 495.0 L 420.3 495.0 L 408.4 495.0 L 396.4 495.0" fill="none" stroke="#a78bfa" stroke-width="1.2" stroke-dasharray="5 6" opacity="0.45"/>
<circle cx="292.4" cy="511.1" r="2.6" fill="#ff9f66" opacity="0.48"/>
<circle cx="244.6" cy="534.8" r="2.6" fill="#ff9f66" opacity="0.48"/>
<circle cx="313.3" cy="479.2" r="2.6" fill="#ff9f66" opacity="0.48"/>
<circle cx="369.2" cy="560.5" r="2.6" fill="#ff9f66" opacity="0.48"/>
<circle cx="298.4" cy="573.0" r="2.6" fill="#ff9f66" opacity="0.48"/>
<circle cx="475.4" cy="483.7" r="2.6" fill="#ff9f66" opacity="0.48"/>
<circle cx="374.4" cy="465.6" r="2.6" fill="#ff9f66" opacity="0.48"/>
<circle cx="417.6" cy="435.1" r="2.6" fill="#ff9f66" opacity="0.48"/>
<circle cx="541.6" cy="419.2" r="2.6" fill="#ff9f66" opacity="0.48"/>
<circle cx="406.4" cy="496.9" r="2.6" fill="#ff9f66" opacity="0.48"/>
<circle cx="476.0" cy="498.8" r="2.6" fill="#ff9f66" opacity="0.48"/>
<circle cx="603.7" cy="475.3" r="2.6" fill="#ff9f66" opacity="0.48"/>
<circle cx="599.5" cy="447.6" r="2.6" fill="#ff9f66" opacity="0.48"/>
<circle cx="580.6" cy="382.5" r="2.6" fill="#ff9f66" opacity="0.48"/>
<circle cx="530.7" cy="396.5" r="2.6" fill="#ff9f66" opacity="0.48"/>
<circle cx="551.6" cy="357.7" r="2.6" fill="#ff9f66" opacity="0.48"/>
<circle cx="536.2" cy="368.0" r="2.6" fill="#ff9f66" opacity="0.48"/>
<circle cx="552.9" cy="299.9" r="2.6" fill="#ff9f66" opacity="0.48"/>
<circle cx="520.1" cy="211.9" r="2.6" fill="#ff9f66" opacity="0.48"/>
<circle cx="555.2" cy="254.1" r="2.6" fill="#ff9f66" opacity="0.48"/>
<circle cx="601.4" cy="277.5" r="2.6" fill="#ff9f66" opacity="0.48"/>
<circle cx="638.2" cy="268.3" r="2.6" fill="#ff9f66" opacity="0.48"/>
<circle cx="672.1" cy="291.5" r="2.6" fill="#ff9f66" opacity="0.48"/>
<circle cx="673.0" cy="275.5" r="2.6" fill="#ff9f66" opacity="0.48"/>
<circle cx="670.6" cy="293.2" r="2.6" fill="#ff9f66" opacity="0.48"/>
<circle cx="718.9" cy="295.4" r="2.6" fill="#ff9f66" opacity="0.48"/>
<circle cx="762.0" cy="278.9" r="2.6" fill="#ff9f66" opacity="0.48"/>
<circle cx="772.0" cy="303.7" r="2.6" fill="#ff9f66" opacity="0.48"/>
<circle cx="796.8" cy="273.0" r="2.6" fill="#ff9f66" opacity="0.48"/>
<circle cx="838.5" cy="282.1" r="2.6" fill="#ff9f66" opacity="0.48"/>
<circle cx="836.3" cy="273.9" r="2.6" fill="#ff9f66" opacity="0.48"/>
<circle cx="773.3" cy="258.6" r="2.6" fill="#ff9f66" opacity="0.48"/>
<circle cx="747.8" cy="286.5" r="2.6" fill="#ff9f66" opacity="0.48"/>
<circle cx="716.3" cy="282.7" r="2.6" fill="#ff9f66" opacity="0.48"/>
<circle cx="735.5" cy="261.9" r="2.6" fill="#ff9f66" opacity="0.48"/>
<circle cx="674.1" cy="296.5" r="2.6" fill="#ff9f66" opacity="0.48"/>
<circle cx="653.5" cy="304.9" r="2.6" fill="#ff9f66" opacity="0.48"/>
<circle cx="643.2" cy="270.4" r="2.6" fill="#ff9f66" opacity="0.48"/>
<circle cx="602.6" cy="315.8" r="2.6" fill="#ff9f66" opacity="0.48"/>
<circle cx="612.3" cy="296.2" r="2.6" fill="#ff9f66" opacity="0.48"/>
<circle cx="532.9" cy="327.0" r="2.6" fill="#ff9f66" opacity="0.48"/>
<circle cx="590.8" cy="297.8" r="2.6" fill="#ff9f66" opacity="0.48"/>
<circle cx="531.8" cy="260.3" r="2.6" fill="#ff9f66" opacity="0.48"/>
<circle cx="546.6" cy="322.2" r="2.6" fill="#ff9f66" opacity="0.48"/>
<circle cx="547.4" cy="357.7" r="2.6" fill="#ff9f66" opacity="0.48"/>
<circle cx="558.4" cy="418.3" r="2.6" fill="#ff9f66" opacity="0.48"/>
<circle cx="557.0" cy="450.4" r="2.6" fill="#ff9f66" opacity="0.48"/>
<circle cx="564.1" cy="372.3" r="2.6" fill="#ff9f66" opacity="0.48"/>
<circle cx="533.5" cy="549.4" r="2.6" fill="#ff9f66" opacity="0.48"/>
<circle cx="618.5" cy="498.5" r="2.6" fill="#ff9f66" opacity="0.48"/>
<circle cx="454.3" cy="291.5" r="2.6" fill="#ff9f66" opacity="0.48"/>
<circle cx="510.8" cy="472.2" r="2.6" fill="#ff9f66" opacity="0.48"/>
<circle cx="485.9" cy="548.5" r="2.6" fill="#ff9f66" opacity="0.48"/>
<circle cx="454.0" cy="431.2" r="2.6" fill="#ff9f66" opacity="0.48"/>
<circle cx="394.1" cy="507.7" r="2.6" fill="#ff9f66" opacity="0.48"/>
<circle cx="419.5" cy="510.6" r="2.6" fill="#ff9f66" opacity="0.48"/>
<path d="M 271.2 501.5 L 287.3 491.7 L 276.5 503.8 L 272.1 490.0 L 285.6 484.5 L 309.9 490.5 L 333.9 512.0 L 344.8 494.4 L 339.6 516.1 L 347.5 519.6 L 393.7 510.6 L 419.9 517.1 L 419.3 504.9 L 478.3 444.6 L 478.2 435.7 L 501.8 445.7 L 525.2 434.6 L 516.0 462.6 L 499.2 470.0 L 512.2 468.6 L 522.8 468.1 L 541.6 495.6 L 528.1 499.0 L 528.6 516.7 L 557.2 507.3 L 615.0 518.4 L 622.7 500.9 L 616.8 494.9 L 615.0 461.9 L 607.6 429.0 L 614.9 419.3 L 594.4 409.6 L 572.7 398.6 L 560.5 408.0 L 555.6 385.9 L 552.5 376.6 L 543.3 367.6 L 546.5 369.4 L 547.3 337.2 L 539.8 325.7 L 536.6 314.0 L 527.0 289.4 L 521.4 246.5 L 530.5 240.9 L 539.5 236.2 L 557.6 250.3 L 578.1 256.8 L 591.5 279.5 L 616.5 276.0 L 643.5 298.8 L 665.3 299.2 L 664.8 339.9 L 675.9 320.0 L 675.9 300.2 L 678.9 296.4 L 691.5 286.6 L 708.6 288.2 L 700.7 300.0 L 731.1 291.5 L 744.0 289.1 L 763.5 294.7 L 774.3 285.0 L 791.8 278.3 L 822.8 274.8 L 840.5 276.0 L 843.2 264.4 L 848.2 265.8 L 833.1 276.6 L 837.0 277.6 L 818.5 340.4 L 795.6 309.4 L 772.5 304.2 L 755.3 297.7 L 738.9 291.9 L 721.2 286.9 L 698.9 293.2 L 704.0 280.2 L 681.6 277.6 L 670.2 283.2 L 658.1 280.5 L 648.3 289.2 L 637.8 296.6 L 632.6 288.5 L 625.3 282.6 L 611.1 293.9 L 600.5 295.6 L 600.3 296.8 L 599.8 269.9 L 570.8 288.3 L 551.1 280.0 L 555.4 284.9 L 553.7 283.4 L 541.6 276.1 L 533.0 274.1 L 532.5 290.5 L 525.9 308.8 L 527.6 327.1 L 542.0 362.7 L 545.3 387.2 L 545.7 408.6 L 548.3 431.5 L 548.9 446.3 L 552.9 439.6 L 513.0 464.6 L 513.8 497.7 L 508.5 501.4 L 534.0 512.1 L 515.2 514.9 L 497.7 468.8 L 492.3 472.0 L 493.9 474.4 L 482.0 501.2 L 479.0 518.5 L 464.2 508.8 L 456.8 493.5 L 451.6 484.7 L 432.2 491.3 L 412.8 476.0 L 407.3 484.6 L 417.4 470.9" fill="none" stroke="#a78bfa" stroke-width="3.2" stroke-linecap="round" stroke-linejoin="round" opacity="0.92"/>
<path d="M 411.0 469.5 L 404.5 468.0 L 398.1 466.6 L 391.6 465.1 L 385.2 463.6 L 378.7 462.2 L 372.3 460.7 L 365.9 459.3 L 359.4 457.8 L 353.0 456.4 L 346.5 454.9 L 340.1 453.4 L 333.6 452.0 L 327.2 450.5 L 320.7 449.1 L 314.3 447.6 L 307.9 446.1 L 301.4 444.7" fill="none" stroke="#a78bfa" stroke-width="2.2" stroke-linecap="round" stroke-dasharray="3 6" opacity="0.72"/>
<circle cx="417.4" cy="470.9" r="8.5" fill="#071018" stroke="#a78bfa" stroke-width="3"/>
<circle cx="417.4" cy="470.9" r="3" fill="#a78bfa"/>
<polyline points="355.5,390.0 639.0,390.0 639.0,600.0 355.5,600.0 355.5,390.0" fill="none" stroke="#facc15" stroke-width="6" stroke-linecap="round" stroke-linejoin="round" opacity="0.18"/>
<path d="M 588.9 390.0 L 596.2 390.0 L 603.4 390.0 L 610.7 390.0 L 617.9 390.0 L 625.2 390.0 L 632.5 390.0 L 639.0 390.7 L 639.0 398.0 L 639.0 405.2 L 639.0 412.5 L 639.0 419.7 L 639.0 427.0 L 639.0 434.2 L 639.0 441.5 L 639.0 448.7 L 639.0 456.0 L 639.0 463.2 L 639.0 470.5 L 639.0 477.8 L 639.0 485.0 L 639.0 492.3 L 639.0 499.5 L 639.0 506.8 L 639.0 514.0 L 639.0 521.3 L 639.0 528.5 L 639.0 535.8 L 639.0 543.0 L 639.0 550.3 L 639.0 557.5 L 639.0 564.8 L 639.0 572.0 L 639.0 579.3 L 639.0 586.6 L 639.0 593.8 L 637.9 600.0 L 630.7 600.0 L 623.4 600.0 L 616.2 600.0 L 608.9 600.0 L 601.7 600.0 L 594.4 600.0 L 587.2 600.0 L 579.9 600.0 L 572.7 600.0 L 565.4 600.0 L 558.2 600.0 L 550.9 600.0 L 543.6 600.0 L 536.4 600.0 L 529.1 600.0 L 521.9 600.0 L 514.6 600.0 L 507.4 600.0 L 500.1 600.0 L 492.9 600.0 L 485.6 600.0 L 478.4 600.0 L 471.1 600.0 L 463.9 600.0 L 456.6 600.0 L 449.4 600.0 L 442.1 600.0 L 434.8 600.0 L 427.6 600.0 L 420.3 600.0 L 413.1 600.0 L 405.8 600.0 L 398.6 600.0 L 391.3 600.0 L 384.1 600.0 L 376.8 600.0 L 369.6 600.0 L 362.3 600.0 L 355.5 599.6 L 355.5 592.3 L 355.5 585.0 L 355.5 577.8 L 355.5 570.5 L 355.5 563.3 L 355.5 556.0 L 355.5 548.8 L 355.5 541.5 L 355.5 534.3 L 355.5 527.0 L 355.5 519.8 L 355.5 512.5 L 355.5 505.3 L 355.5 498.0 L 355.5 490.8 L 355.5 483.5 L 355.5 476.2 L 355.5 469.0 L 355.5 461.7 L 355.5 454.5 L 355.5 447.2 L 355.5 440.0 L 355.5 432.7 L 355.5 425.5 L 355.5 418.2 L 355.5 411.0 L 355.5 403.7 L 355.5 396.5 L 356.3 390.0 L 363.5 390.0 L 370.8 390.0 L 378.1 390.0 L 385.3 390.0 L 392.6 390.0 L 399.8 390.0 L 407.1 390.0 L 414.3 390.0 L 421.6 390.0 L 428.8 390.0 L 436.1 390.0 L 443.3 390.0 L 450.6 390.0 L 457.8 390.0 L 465.1 390.0" fill="none" stroke="#facc15" stroke-width="1.2" stroke-dasharray="5 6" opacity="0.45"/>
<circle cx="595.6" cy="402.5" r="2.6" fill="#ff9f66" opacity="0.48"/>
<circle cx="565.3" cy="426.4" r="2.6" fill="#ff9f66" opacity="0.48"/>
<circle cx="616.7" cy="340.1" r="2.6" fill="#ff9f66" opacity="0.48"/>
<circle cx="587.7" cy="414.5" r="2.6" fill="#ff9f66" opacity="0.48"/>
<circle cx="648.1" cy="391.5" r="2.6" fill="#ff9f66" opacity="0.48"/>
<circle cx="601.0" cy="412.1" r="2.6" fill="#ff9f66" opacity="0.48"/>
<circle cx="621.6" cy="413.8" r="2.6" fill="#ff9f66" opacity="0.48"/>
<circle cx="624.5" cy="456.2" r="2.6" fill="#ff9f66" opacity="0.48"/>
<circle cx="629.0" cy="491.3" r="2.6" fill="#ff9f66" opacity="0.48"/>
<circle cx="662.5" cy="498.5" r="2.6" fill="#ff9f66" opacity="0.48"/>
<circle cx="628.5" cy="512.6" r="2.6" fill="#ff9f66" opacity="0.48"/>
<circle cx="600.0" cy="504.6" r="2.6" fill="#ff9f66" opacity="0.48"/>
<circle cx="614.6" cy="494.1" r="2.6" fill="#ff9f66" opacity="0.48"/>
<circle cx="655.6" cy="495.1" r="2.6" fill="#ff9f66" opacity="0.48"/>
<circle cx="648.6" cy="527.3" r="2.6" fill="#ff9f66" opacity="0.48"/>
<circle cx="617.3" cy="570.7" r="2.6" fill="#ff9f66" opacity="0.48"/>
<circle cx="624.2" cy="555.4" r="2.6" fill="#ff9f66" opacity="0.48"/>
<circle cx="604.6" cy="597.7" r="2.6" fill="#ff9f66" opacity="0.48"/>
<circle cx="596.1" cy="633.1" r="2.6" fill="#ff9f66" opacity="0.48"/>
<circle cx="596.4" cy="616.9" r="2.6" fill="#ff9f66" opacity="0.48"/>
<circle cx="615.1" cy="607.4" r="2.6" fill="#ff9f66" opacity="0.48"/>
<circle cx="542.8" cy="553.7" r="2.6" fill="#ff9f66" opacity="0.48"/>
<circle cx="582.5" cy="559.7" r="2.6" fill="#ff9f66" opacity="0.48"/>
<circle cx="586.3" cy="555.1" r="2.6" fill="#ff9f66" opacity="0.48"/>
<circle cx="534.5" cy="621.3" r="2.6" fill="#ff9f66" opacity="0.48"/>
<circle cx="559.4" cy="579.3" r="2.6" fill="#ff9f66" opacity="0.48"/>
<circle cx="536.6" cy="607.5" r="2.6" fill="#ff9f66" opacity="0.48"/>
<circle cx="664.5" cy="464.5" r="2.6" fill="#ff9f66" opacity="0.48"/>
<circle cx="501.7" cy="633.2" r="2.6" fill="#ff9f66" opacity="0.48"/>
<circle cx="430.7" cy="632.4" r="2.6" fill="#ff9f66" opacity="0.48"/>
<circle cx="512.5" cy="492.6" r="2.6" fill="#ff9f66" opacity="0.48"/>
<circle cx="397.9" cy="584.0" r="2.6" fill="#ff9f66" opacity="0.48"/>
<circle cx="397.2" cy="612.4" r="2.6" fill="#ff9f66" opacity="0.48"/>
<circle cx="382.7" cy="526.1" r="2.6" fill="#ff9f66" opacity="0.48"/>
<circle cx="408.6" cy="535.3" r="2.6" fill="#ff9f66" opacity="0.48"/>
<circle cx="325.1" cy="576.2" r="2.6" fill="#ff9f66" opacity="0.48"/>
<circle cx="375.2" cy="561.9" r="2.6" fill="#ff9f66" opacity="0.48"/>
<circle cx="326.8" cy="585.8" r="2.6" fill="#ff9f66" opacity="0.48"/>
<circle cx="342.2" cy="544.4" r="2.6" fill="#ff9f66" opacity="0.48"/>
<circle cx="385.8" cy="553.2" r="2.6" fill="#ff9f66" opacity="0.48"/>
<circle cx="384.0" cy="527.8" r="2.6" fill="#ff9f66" opacity="0.48"/>
<circle cx="463.6" cy="555.9" r="2.6" fill="#ff9f66" opacity="0.48"/>
<circle cx="287.7" cy="475.6" r="2.6" fill="#ff9f66" opacity="0.48"/>
<circle cx="362.8" cy="454.7" r="2.6" fill="#ff9f66" opacity="0.48"/>
<circle cx="388.2" cy="519.1" r="2.6" fill="#ff9f66" opacity="0.48"/>
<circle cx="356.4" cy="388.4" r="2.6" fill="#ff9f66" opacity="0.48"/>
<circle cx="347.7" cy="391.2" r="2.6" fill="#ff9f66" opacity="0.48"/>
<circle cx="389.4" cy="397.3" r="2.6" fill="#ff9f66" opacity="0.48"/>
<circle cx="349.3" cy="355.7" r="2.6" fill="#ff9f66" opacity="0.48"/>
<circle cx="365.3" cy="365.6" r="2.6" fill="#ff9f66" opacity="0.48"/>
<circle cx="350.2" cy="404.2" r="2.6" fill="#ff9f66" opacity="0.48"/>
<circle cx="379.2" cy="445.1" r="2.6" fill="#ff9f66" opacity="0.48"/>
<circle cx="406.9" cy="419.0" r="2.6" fill="#ff9f66" opacity="0.48"/>
<circle cx="318.6" cy="372.5" r="2.6" fill="#ff9f66" opacity="0.48"/>
<circle cx="504.5" cy="348.4" r="2.6" fill="#ff9f66" opacity="0.48"/>
<circle cx="487.9" cy="312.3" r="2.6" fill="#ff9f66" opacity="0.48"/>
<path d="M 590.8 393.5 L 608.3 397.1 L 595.3 408.6 L 588.6 388.1 L 599.8 364.4 L 632.4 369.4 L 617.7 386.1 L 627.8 402.8 L 638.6 400.5 L 640.4 398.8 L 629.9 404.3 L 636.4 414.4 L 633.2 416.8 L 628.7 426.9 L 627.5 440.1 L 627.4 454.4 L 627.9 472.3 L 633.6 458.9 L 644.1 475.7 L 653.0 468.9 L 657.4 473.6 L 641.6 483.5 L 636.8 498.2 L 637.1 497.0 L 623.8 503.5 L 627.6 514.9 L 622.1 512.4 L 624.3 521.4 L 634.2 516.2 L 641.6 540.5 L 645.5 541.0 L 642.0 574.4 L 634.0 580.8 L 644.9 599.0 L 638.6 591.0 L 641.8 601.2 L 628.7 605.3 L 647.8 577.9 L 632.2 596.2 L 618.3 593.4 L 608.5 602.5 L 609.0 605.7 L 608.0 608.8 L 585.4 588.1 L 567.6 576.9 L 579.9 589.5 L 577.0 580.8 L 562.0 590.4 L 564.1 580.6 L 540.2 594.9 L 532.5 603.3 L 575.7 604.7 L 571.8 599.5 L 553.9 605.7 L 546.9 607.6 L 528.1 620.1 L 560.5 580.6 L 531.9 575.1 L 520.3 588.1 L 488.4 572.3 L 465.3 586.2 L 455.7 605.2 L 462.7 576.0 L 439.4 576.2 L 419.8 576.8 L 404.0 562.2 L 392.7 573.7 L 392.8 594.1 L 382.3 576.0 L 368.3 582.2 L 372.4 568.4 L 363.7 566.2 L 343.6 568.6 L 349.6 571.2 L 353.1 567.6 L 334.7 585.4 L 326.6 586.9 L 344.7 604.8 L 341.1 609.4 L 363.8 584.9 L 357.5 571.9 L 339.5 586.7 L 350.4 577.5 L 347.2 582.0 L 345.9 581.8 L 365.2 564.8 L 372.4 551.3 L 368.0 521.4 L 396.6 525.2 L 376.1 489.9 L 352.8 477.9 L 351.6 495.2 L 353.3 479.2 L 347.7 456.1 L 357.6 466.3 L 358.2 475.2 L 357.6 447.0 L 334.6 460.3 L 335.7 436.6 L 342.0 409.7 L 355.2 398.2 L 365.4 406.1 L 362.1 385.0 L 368.3 383.3 L 369.0 371.7 L 360.9 366.2 L 358.0 371.0 L 362.9 387.5 L 367.9 401.9 L 354.0 400.4 L 352.8 400.7 L 351.5 401.0 L 373.4 408.6 L 375.7 410.0 L 353.2 395.1 L 375.8 367.5 L 418.4 358.2 L 428.3 371.0 L 451.4 352.1 L 479.8 362.3" fill="none" stroke="#facc15" stroke-width="3.2" stroke-linecap="round" stroke-linejoin="round" opacity="0.92"/>
<path d="M 493.2 359.6 L 506.5 356.8 L 519.9 354.1 L 533.2 351.3 L 546.6 348.6 L 559.9 345.8 L 573.3 343.1 L 586.6 340.3 L 600.0 337.6 L 613.3 334.9 L 626.6 332.1 L 640.0 329.4 L 653.3 326.6 L 666.7 323.9 L 680.0 321.1 L 693.4 318.4 L 706.7 315.6 L 720.1 312.9" fill="none" stroke="#facc15" stroke-width="2.2" stroke-linecap="round" stroke-dasharray="3 6" opacity="0.72"/>
<circle cx="479.8" cy="362.3" r="8.5" fill="#071018" stroke="#facc15" stroke-width="3"/>
<circle cx="479.8" cy="362.3" r="3" fill="#facc15"/>
<rect x="580.0" y="14.0" width="243.0" height="92" rx="12" fill="#0d1824" stroke="#203247" opacity="0.94"/>
<text x="594.0" y="30.0" fill="#dbeafe" font-family="monospace" font-size="11" font-weight="700">legend</text>
<line x1="594.0" y1="45.0" x2="616.0" y2="45.0" stroke="#94a3b8" stroke-width="3" opacity="0.85" stroke-dasharray="4 4"/>
<text x="628.0" y="48.0" fill="#9fb9d8" font-family="monospace" font-size="10">truth route</text>
<circle cx="599.0" cy="60.0" r="3" fill="#ff9f66" opacity="0.7"/>
<text x="628.0" y="63.0" fill="#9fb9d8" font-family="monospace" font-size="10">noisy sensor ping</text>
<line x1="594.0" y1="75.0" x2="616.0" y2="75.0" stroke="#5eead4" stroke-width="3" opacity="0.85"/>
<text x="628.0" y="78.0" fill="#9fb9d8" font-family="monospace" font-size="10">filtered estimate</text>
<line x1="594.0" y1="90.0" x2="616.0" y2="90.0" stroke="#facc15" stroke-width="7" opacity="0.24"/>
<text x="628.0" y="93.0" fill="#9fb9d8" font-family="monospace" font-size="10">forecast heat</text>
<rect x="72.0" y="816.5" width="756.0" height="44" rx="12" fill="#0d1824" stroke="#203247" opacity="0.96"/>
<circle cx="90.0" cy="833.5" r="5" fill="#5eead4"/>
<text x="100.0" y="837.5" fill="#dbeafe" font-family="monospace" font-size="10">crosstown</text>
<text x="100.0" y="851.5" fill="#8aa4c2" font-family="monospace" font-size="9">gps 65px / filter 34px</text>
<circle cx="274.5" cy="833.5" r="5" fill="#f97316"/>
<text x="284.5" y="837.5" fill="#dbeafe" font-family="monospace" font-size="10">northline</text>
<text x="284.5" y="851.5" fill="#8aa4c2" font-family="monospace" font-size="9">gps 53px / filter 22px</text>
<circle cx="459.0" cy="833.5" r="5" fill="#a78bfa"/>
<text x="469.0" y="837.5" fill="#dbeafe" font-family="monospace" font-size="10">riverbend</text>
<text x="469.0" y="851.5" fill="#8aa4c2" font-family="monospace" font-size="9">gps 64px / filter 35px</text>
<circle cx="643.5" cy="833.5" r="5" fill="#facc15"/>
<text x="653.5" y="837.5" fill="#dbeafe" font-family="monospace" font-size="10">downtown loop</text>
<text x="653.5" y="851.5" fill="#8aa4c2" font-family="monospace" font-size="9">gps 59px / filter 28px</text>
</svg>